<svg width="377" height="190" viewBox="0 0 377 190" fill="none" xmlns="http://www.w3.org/2000/svg">
<path d="M50.7822 56.7491C53.9822 58.2059 57.0031 61.2481 58.6267 65.9924C62.9979 78.7658 76.9669 87.47 89.0721 80.8554C93.8682 78.2347 102.143 81.0678 105.261 90.1808C109.632 102.954 123.601 111.658 135.707 105.044C136.943 104.368 138.41 104.055 139.961 104.118V113.206C135.304 111.732 130.232 111.955 125.451 114.567C120.655 117.188 112.38 114.355 109.262 105.242C104.89 92.4684 90.9213 83.7642 78.8161 90.3788C74.02 92.9995 65.7456 90.1664 62.6271 81.0534C60.5045 74.8508 56.1187 69.6077 50.7822 66.6121V56.7491Z" fill="white"/>
<path d="M59.3031 50.3564C63.2341 53.4316 66.3874 57.7852 68.088 62.7546C71.2066 71.8676 79.481 74.7007 84.277 72.08C96.3822 65.4654 110.351 74.1695 114.722 86.943C117.841 96.056 126.115 98.8891 130.912 96.2684C133.872 94.6506 136.945 93.9491 139.961 93.9995V50.3564H59.3031Z" fill="white"/>
<path d="M50.7822 79.6217V89.255C53.5071 92.0491 55.6786 95.5112 56.9884 99.3386C60.107 108.452 68.3814 111.285 73.1774 108.664C85.2826 102.049 99.2517 110.754 103.623 123.527C106.741 132.64 115.016 135.473 119.812 132.852C126.618 129.133 134.013 130.257 139.961 134.224V124.155C136.634 122.113 132.905 121.889 130.246 123.343C118.14 129.957 104.171 121.253 99.8002 108.48C96.6816 99.3666 88.4072 96.5335 83.6112 99.1542C71.506 105.769 57.5369 97.0646 53.1657 84.2912C52.55 82.492 51.7334 80.9377 50.7822 79.6217Z" fill="white"/>
<path d="M103.434 139.535C99.2765 136.444 95.9319 131.938 94.1615 126.765C91.043 117.652 82.7686 114.819 77.9725 117.439C68.0617 122.855 56.9016 118.002 50.7822 109.055V139.535H103.434Z" fill="white"/>
<path fill-rule="evenodd" clip-rule="evenodd" d="M178.073 69.3564C182.633 69.3564 186.616 70.0244 190.023 71.3599C193.432 72.6953 196.264 74.5371 198.521 76.8857C200.776 79.1885 202.458 81.8364 203.562 84.8296C204.714 87.7773 205.29 90.8394 205.29 94.0171V95.5366C205.29 98.5762 204.714 101.569 203.562 104.517C202.458 107.464 200.776 110.135 198.521 112.53C196.264 114.924 193.432 116.836 190.023 118.263C186.616 119.691 182.633 120.405 178.073 120.405H159.837V69.3564H178.073ZM178.695 111.287H169.646V78.4746H178.695C181.32 78.4746 183.646 78.8433 185.672 79.5801C187.744 80.3169 189.494 81.3989 190.922 82.8267C192.35 84.2544 193.432 85.981 194.168 88.0073C194.951 89.9878 195.343 92.2441 195.343 94.7769C195.343 97.2178 194.951 99.4512 194.168 101.478C193.432 103.458 192.35 105.185 190.922 106.658C189.494 108.132 187.744 109.283 185.672 110.112C183.646 110.895 181.32 111.287 178.695 111.287Z" fill="white"/>
<path d="M212.554 117.02C214.948 119.875 218.311 121.303 222.639 121.303H223.054C225.955 121.303 228.373 120.658 230.307 119.369C232.241 118.079 233.691 116.168 234.658 113.635C234.926 112.935 235.156 112.188 235.35 111.393V120.128H242.948V82.5503H233.346V104.724C233.346 107.165 232.633 109.099 231.205 110.527C229.823 111.954 228.027 112.668 225.816 112.668C223.606 112.668 221.856 112 220.566 110.665C219.277 109.283 218.633 107.441 218.633 105.139V82.5503H209.031V104.31C209.031 109.928 210.205 114.165 212.554 117.02Z" fill="white"/>
<path d="M250.523 120.128V82.6191H258.122V91.8643C258.345 90.9014 258.621 90.0073 258.951 89.1816C259.965 86.603 261.461 84.6685 263.441 83.3794C265.468 82.0898 267.978 81.4448 270.971 81.4448H271.385C275.853 81.4448 279.237 82.8955 281.54 85.7969C283.842 88.6519 284.993 92.9351 284.993 98.6455V120.128H275.392V97.8164C275.392 95.5137 274.724 93.6489 273.389 92.2212C272.099 90.7935 270.303 90.0796 268 90.0796C265.651 90.0796 263.74 90.8164 262.267 92.29C260.839 93.7178 260.126 95.6519 260.126 98.0928V120.128H250.523Z" fill="white"/>
<path fill-rule="evenodd" clip-rule="evenodd" d="M300.151 119.783C302.593 120.888 305.425 121.441 308.648 121.441C311.733 121.441 314.474 120.911 316.868 119.852C319.31 118.793 321.312 117.296 322.878 115.362C324.444 113.428 325.503 111.171 326.056 108.592H317.214C316.799 109.974 315.855 111.148 314.382 112.115C312.908 113.037 310.997 113.497 308.648 113.497C306.3 113.497 304.365 112.99 302.846 111.977C301.326 110.918 300.197 109.49 299.461 107.694C298.971 106.471 298.644 105.135 298.479 103.688H326.678V100.234C326.678 96.9185 325.986 93.833 324.605 90.9775C323.224 88.0767 321.151 85.751 318.388 84.001C315.671 82.2051 312.286 81.3066 308.233 81.3066C305.148 81.3066 302.432 81.8594 300.083 82.9648C297.734 84.0239 295.754 85.4746 294.142 87.3164C292.576 89.1128 291.379 91.1851 290.55 93.5337C289.767 95.8359 289.376 98.231 289.376 100.718V102.03C289.376 104.425 289.767 106.773 290.55 109.076C291.379 111.378 292.576 113.474 294.142 115.362C295.754 117.204 297.757 118.678 300.151 119.783ZM298.644 97.8164C298.828 96.7612 299.101 95.7939 299.461 94.915C299.885 93.9185 300.409 93.0503 301.035 92.3096C301.565 91.6812 302.169 91.145 302.846 90.7012C304.319 89.7344 306.115 89.251 308.233 89.251C310.352 89.251 312.102 89.7114 313.483 90.6323C314.911 91.5532 315.971 92.8657 316.661 94.5698C316.835 94.999 316.987 95.4502 317.117 95.9233C317.181 96.1523 317.238 96.3862 317.291 96.6255C317.376 97.0093 317.447 97.4062 317.505 97.8164H298.644Z" fill="white"/>
</svg>
