<svg width="462" height="184" viewBox="0 0 462 184" fill="none" xmlns="http://www.w3.org/2000/svg">
<path fill-rule="evenodd" clip-rule="evenodd" d="M116.675 59.5753H75.4658V42.0928H134.157V100.784H116.675V59.5753Z" fill="white"/>
<path fill-rule="evenodd" clip-rule="evenodd" d="M84.4852 94.3624C81.8156 92.5786 78.677 91.6265 75.4662 91.6265V74.144C82.1347 74.144 88.6534 76.1215 94.198 79.8263C99.7426 83.531 104.064 88.7968 106.616 94.9576C109.168 101.118 109.836 107.898 108.535 114.438C107.234 120.978 104.023 126.986 99.3072 131.701C94.5919 136.417 88.5842 139.628 82.0439 140.929C75.5036 142.23 68.7244 141.562 62.5635 139.01C56.4027 136.458 51.137 132.137 47.4322 126.592C43.7274 121.047 41.75 114.529 41.75 107.86L59.2325 107.86C59.2325 111.071 60.1846 114.21 61.9684 116.879C63.7521 119.549 66.2875 121.63 69.2538 122.858C72.2202 124.087 75.4842 124.408 78.6333 123.782C81.7823 123.156 84.6749 121.61 86.9452 119.339C89.2155 117.069 90.7617 114.176 91.3881 111.027C92.0144 107.878 91.693 104.614 90.4643 101.648C89.2356 98.6816 87.1549 96.1462 84.4852 94.3624Z" fill="white"/>
<path d="M161.63 127.881V54.5322H188.769C194.637 54.5322 199.492 55.5102 203.334 57.4662C207.176 59.4221 210.04 62.1116 211.926 65.5345C213.812 68.9574 214.755 72.7995 214.755 77.0606C214.755 81.1123 213.847 84.8495 212.031 88.2725C210.214 91.6255 207.385 94.3499 203.543 96.4455C199.701 98.4714 194.776 99.4843 188.769 99.4843H175.042V127.881H161.63ZM175.042 88.5868H187.93C192.611 88.5868 195.964 87.5739 197.99 85.5481C200.085 83.4524 201.133 80.6233 201.133 77.0606C201.133 73.4282 200.085 70.599 197.99 68.5732C195.964 66.4775 192.611 65.4297 187.93 65.4297H175.042V88.5868Z" fill="white"/>
<path d="M242.316 129.138C237.077 129.138 232.432 128.02 228.38 125.785C224.328 123.549 221.15 120.406 218.845 116.354C216.54 112.303 215.387 107.622 215.387 102.313C215.387 96.9345 216.505 92.1494 218.74 87.9581C221.045 83.7668 224.189 80.5185 228.171 78.2133C232.222 75.8382 236.972 74.6506 242.421 74.6506C247.521 74.6506 252.026 75.7683 255.938 78.0037C259.85 80.2391 262.889 83.3127 265.054 87.2246C267.29 91.0667 268.407 95.3628 268.407 100.113C268.407 100.881 268.372 101.685 268.303 102.523C268.303 103.361 268.268 104.234 268.198 105.143H228.694C228.974 109.194 230.371 112.373 232.886 114.678C235.47 116.983 238.579 118.136 242.212 118.136C244.936 118.136 247.206 117.542 249.022 116.354C250.909 115.097 252.306 113.49 253.214 111.534H266.836C265.858 114.818 264.216 117.821 261.911 120.546C259.675 123.2 256.881 125.296 253.528 126.833C250.245 128.37 246.508 129.138 242.316 129.138ZM242.421 85.5481C239.138 85.5481 236.239 86.4911 233.724 88.3772C231.209 90.1935 229.603 92.9877 228.904 96.7599H254.786C254.576 93.337 253.319 90.6126 251.013 88.5868C248.708 86.561 245.844 85.5481 242.421 85.5481Z" fill="white"/>
<path d="M274.449 127.881V75.908H286.289L287.337 84.7098C288.944 81.6362 291.249 79.1912 294.253 77.375C297.326 75.5587 300.924 74.6506 305.045 74.6506C311.472 74.6506 316.467 76.6764 320.029 80.7281C323.592 84.7797 325.373 90.7174 325.373 98.5412V127.881H311.961V99.7986C311.961 95.3279 311.053 91.9049 309.237 89.5298C307.421 87.1548 304.591 85.9672 300.749 85.9672C296.977 85.9672 293.869 87.2945 291.424 89.949C289.049 92.6035 287.861 96.3058 287.861 101.056V127.881H274.449Z" fill="white"/>
<path d="M356.117 127.881C350.668 127.881 346.302 126.553 343.019 123.899C339.736 121.244 338.094 116.529 338.094 109.753V87.1198H329.187V75.908H338.094L339.666 61.9718H351.506V75.908H365.547V87.1198H351.506V109.858C351.506 112.373 352.03 114.119 353.078 115.097C354.196 116.005 356.082 116.459 358.736 116.459H365.233V127.881H356.117Z" fill="white"/>
<path d="M389.742 129.138C385.271 129.138 381.603 128.439 378.739 127.042C375.875 125.575 373.745 123.654 372.347 121.279C370.95 118.904 370.252 116.285 370.252 113.42C370.252 108.6 372.138 104.689 375.91 101.685C379.682 98.6809 385.341 97.179 392.885 97.179H406.088V95.9216C406.088 92.359 405.075 89.7394 403.049 88.0629C401.023 86.3864 398.508 85.5481 395.505 85.5481C392.78 85.5481 390.405 86.2117 388.379 87.539C386.354 88.7964 385.096 90.6825 384.607 93.1973H371.509C371.858 89.4251 373.116 86.1419 375.281 83.3476C377.517 80.5534 380.381 78.4228 383.874 76.9559C387.366 75.419 391.278 74.6506 395.609 74.6506C403.014 74.6506 408.847 76.5018 413.108 80.2041C417.369 83.9065 419.5 89.1456 419.5 95.9216V127.881H408.079L406.821 119.498C405.284 122.292 403.119 124.597 400.325 126.414C397.6 128.23 394.073 129.138 389.742 129.138ZM392.78 118.66C396.622 118.66 399.591 117.402 401.687 114.887C403.852 112.373 405.215 109.264 405.773 105.562H394.352C390.789 105.562 388.24 106.225 386.703 107.553C385.166 108.81 384.398 110.382 384.398 112.268C384.398 114.294 385.166 115.865 386.703 116.983C388.24 118.101 390.265 118.66 392.78 118.66Z" fill="white"/>
</svg>
